<?xml version="1.0" standalone="no"?>
<!DOCTYPE svg PUBLIC "-//W3C//DTD SVG 20010904//EN"
 "http://www.w3.org/TR/2001/REC-SVG-20010904/DTD/svg10.dtd">
<svg version="1.0" xmlns="http://www.w3.org/2000/svg"
 width="30.000000pt" height="30.000000pt" viewBox="0 0 30.000000 30.000000"
 preserveAspectRatio="xMidYMid meet">

<g transform="translate(0.000000,30.000000) scale(0.100000,-0.100000)"
fill="#000000" stroke="none">
<path d="M79 285 c-38 -20 -54 -51 -68 -126 -11 -59 -11 -69 7 -100 26 -48 59
-64 97 -49 l30 12 -34 28 -34 29 36 -11 c27 -8 47 -8 74 0 l36 11 -34 -29 -34
-28 30 -12 c38 -15 71 1 97 49 18 31 18 41 7 100 -14 76 -31 106 -70 127 -35
18 -106 18 -140 -1z m69 -17 c-5 -15 -48 -24 -48 -10 0 14 12 22 33 22 10 0
17 -5 15 -12z m-58 -18 c0 -5 -5 -10 -10 -10 -6 0 -19 -15 -30 -32 -11 -18
-20 -29 -20 -24 0 13 43 76 53 76 4 0 7 -4 7 -10z m74 -45 c-4 -8 -10 -15 -14
-15 -4 0 -10 7 -14 15 -4 10 1 15 14 15 13 0 18 -5 14 -15z m-57 -21 c-3 -3
-12 -4 -19 -1 -8 3 -5 6 6 6 11 1 17 -2 13 -5z m110 0 c-3 -3 -12 -4 -19 -1
-8 3 -5 6 6 6 11 1 17 -2 13 -5z m-110 -44 c-1 -12 -8 -20 -19 -20 -23 0 -34
20 -17 31 23 15 38 10 36 -11z m67 11 c8 -12 -20 -22 -39 -15 -19 8 -9 24 15
24 10 0 21 -4 24 -9z m55 0 c17 -11 6 -31 -17 -31 -11 0 -18 8 -19 20 -2 21
13 26 36 11z m-200 -43 c12 -15 11 -18 -3 -18 -10 0 -16 8 -16 22 0 12 1 19 3
17 1 -2 9 -12 16 -21z m31 -58 c0 -5 -4 -10 -10 -10 -5 0 -10 5 -10 10 0 6 5
10 10 10 6 0 10 -4 10 -10z m160 -20 c8 -5 11 -10 5 -10 -5 0 -17 5 -25 10 -8
5 -10 10 -5 10 6 0 17 -5 25 -10z"/>
</g>
</svg>
